<?xml version="1.0" encoding="utf-8"?>
<!-- Generator: Adobe Illustrator 16.0.0, SVG Export Plug-In . SVG Version: 6.00 Build 0)  -->
<!DOCTYPE svg PUBLIC "-//W3C//DTD SVG 1.1//EN" "http://www.w3.org/Graphics/SVG/1.1/DTD/svg11.dtd">
<svg version="1.1" id="Layer_1" xmlns="http://www.w3.org/2000/svg" xmlns:xlink="http://www.w3.org/1999/xlink" x="0px" y="0px"
	 width="100px" height="100px" viewBox="0 0 100 100" enable-background="new 0 0 100 100" xml:space="preserve">
<g fill="#3498db">
	<rect x="32.787" y="85.277" width="34.337" height="4.183"/>
	<path d="M67.124,83.277H32.787v-7.261c4.828,3.545,10.78,5.646,17.216,5.646c6.395,0,12.311-2.076,17.121-5.58V83.277z"/>
	<path d="M60.276,15.777c0-2.888,2.349-5.237,5.234-5.237c2.891,0,5.238,2.351,5.238,5.237v28.188L60.276,33.845V31.73v-2.926
		V15.777z"/>
	<path d="M53.039,29.805c1.961,0,3.752,1.112,4.647,2.846c-0.213,0.027-0.42,0.105-0.584,0.269c-4.476,4.477-4.476,11.757,0,16.233
		l1.047,1.047c-0.523,2.383-2.662,4.108-5.11,4.108c-2.89,0-5.238-2.351-5.238-5.237v-4.028v-10
		C47.801,32.153,50.149,29.805,53.039,29.805z"/>
	<path d="M62.272,54.333c-0.043-0.006-0.082-0.024-0.125-0.024h-4.158c0.744-0.702,1.359-1.545,1.755-2.517l2.542,2.543
		C62.28,54.333,62.276,54.333,62.272,54.333z"/>
	<path d="M40.564,29.805c2.888,0,5.236,2.35,5.236,5.236v10c0,2.889-2.35,5.237-5.236,5.237c-2.888,0-5.236-2.35-5.236-5.237v-10
		C35.327,32.153,37.676,29.805,40.564,29.805z"/>
	<path d="M28.089,19.647c2.89,0,5.238,2.35,5.238,5.236V35.04v10c0,3.991,3.246,7.237,7.236,7.237c2.088,0,3.971-0.888,5.293-2.307
		c0.212,1.697,1.02,3.211,2.201,4.335H31.787c-0.553,0-1,0.447-1,1c0,0.552,0.447,1,1,1h26.571l-8.85,5.021
		c-0.479,0.271-0.648,0.883-0.377,1.361c0.186,0.324,0.521,0.506,0.871,0.506c0.167,0,0.337-0.042,0.492-0.13l12.144-6.892
		c0.038-0.021,0.062-0.057,0.095-0.082c0.058-0.043,0.111-0.084,0.158-0.137c0.043-0.048,0.071-0.1,0.104-0.154
		c0.031-0.053,0.063-0.107,0.085-0.17c0.022-0.065,0.03-0.133,0.041-0.201c0.005-0.042,0.024-0.08,0.024-0.124
		c0-0.021-0.011-0.036-0.012-0.056c-0.001-0.021,0.008-0.043,0.004-0.063l4.278,4.276c0.194,0.195,0.45,0.293,0.707,0.293
		c0.256,0,0.512-0.098,0.707-0.293c0.392-0.391,0.392-1.021,0-1.414L58.517,47.737c-3.629-3.63-3.685-9.489-0.186-13.199
		c0.006,0.021,0.006,0.04,0.013,0.061c0.007,0.019,0.005,0.042,0.013,0.061c0.01,0.021,0.029,0.038,0.039,0.059
		c0.049,0.097,0.105,0.188,0.183,0.264c0.002,0.002,0.003,0.005,0.005,0.008l18.563,17.938c-0.121,8.043-3.757,15.245-9.437,20.143
		c-0.157,0.073-0.281,0.191-0.381,0.33c-4.704,3.908-10.744,6.263-17.323,6.263c-14.972,0-27.15-12.181-27.15-27.149v-4.555V24.885
		C22.853,21.997,25.201,19.647,28.089,19.647z"/>
</g>
</svg>
