<?xml version="1.0" encoding="utf-8"?>
<!-- Generator: Adobe Illustrator 16.0.0, SVG Export Plug-In . SVG Version: 6.00 Build 0)  -->
<!DOCTYPE svg PUBLIC "-//W3C//DTD SVG 1.1//EN" "http://www.w3.org/Graphics/SVG/1.1/DTD/svg11.dtd">
<svg version="1.1" id="Layer_1" xmlns="http://www.w3.org/2000/svg" xmlns:xlink="http://www.w3.org/1999/xlink" x="0px" y="0px"
	 width="35.346px" height="19.864px" viewBox="0 0 35.346 19.864" enable-background="new 0 0 35.346 19.864" xml:space="preserve">
<path fill="none" stroke="#000000" stroke-miterlimit="10" d="M28.67,7.036c-0.81,0-1.582,0.163-2.285,0.456
	c-1.018-3.81-4.49-6.617-8.62-6.617c-4.131,0-7.604,2.807-8.622,6.617C8.44,7.199,7.668,7.036,6.858,7.036
	c-3.286,0-5.949,2.664-5.949,5.949c0,3.284,2.663,5.948,5.949,5.948c0.174,0,0.345-0.008,0.515-0.023h20.781
	c0.171,0.014,0.341,0.023,0.516,0.023c3.286,0,5.948-2.664,5.948-5.948C34.619,9.7,31.957,7.036,28.67,7.036z"/>
</svg>
