<?xml version="1.0" encoding="utf-8"?>
<!-- Generator: Adobe Illustrator 16.0.0, SVG Export Plug-In . SVG Version: 6.00 Build 0)  -->
<!DOCTYPE svg PUBLIC "-//W3C//DTD SVG 1.1//EN" "http://www.w3.org/Graphics/SVG/1.1/DTD/svg11.dtd">
<svg version="1.1" id="Layer_1" xmlns="http://www.w3.org/2000/svg" xmlns:xlink="http://www.w3.org/1999/xlink" x="0px" y="0px"
	 width="4037.83px" height="90.667px" viewBox="-1665.335 -10 4037.83 90.667"
	 enable-background="new -1665.335 -10 4037.83 90.667" xml:space="preserve">
<path fill="none" stroke="#000000" stroke-miterlimit="10" d="M-1220.215,55.378c-0.811,0-1.582,0.162-2.285,0.455
	c-1.018-3.81-4.49-6.617-8.62-6.617c-4.131,0-7.604,2.808-8.622,6.617c-0.703-0.293-1.475-0.455-2.285-0.455
	c-3.286,0-5.948,2.664-5.948,5.948s2.662,5.948,5.948,5.948c0.175,0,0.346-0.009,0.516-0.022h20.78
	c0.172,0.014,0.342,0.022,0.517,0.022c3.286,0,5.948-2.664,5.948-5.948C-1214.266,58.042-1216.928,55.378-1220.215,55.378z"/>
<path fill="none" stroke="#000000" stroke-miterlimit="10" d="M817.016,53.959c-0.811,0-1.582,0.162-2.285,0.455
	c-1.018-3.81-4.49-6.617-8.619-6.617c-4.131,0-7.604,2.808-8.623,6.617c-0.703-0.293-1.475-0.455-2.285-0.455
	c-3.285,0-5.947,2.664-5.947,5.948s2.662,5.948,5.947,5.948c0.176,0,0.346-0.009,0.516-0.022H816.5
	c0.172,0.014,0.342,0.022,0.516,0.022c3.287,0,5.949-2.664,5.949-5.948S820.303,53.959,817.016,53.959z"/>
<path fill="none" stroke="#000000" stroke-miterlimit="10" d="M-164.203,13.93c-0.811,0-1.582,0.162-2.285,0.455
	c-1.018-3.81-4.49-6.617-8.62-6.617c-4.131,0-7.604,2.808-8.622,6.617c-0.703-0.293-1.475-0.455-2.285-0.455
	c-3.286,0-5.948,2.664-5.948,5.948s2.662,5.948,5.948,5.948c0.175,0,0.346-0.009,0.516-0.022h20.78
	c0.172,0.014,0.342,0.022,0.517,0.022c3.286,0,5.948-2.664,5.948-5.948C-158.254,16.594-160.916,13.93-164.203,13.93z"/>
<path fill="#FFFFFF" stroke="#000000" stroke-miterlimit="10" d="M-128.762,12.545c-1.135,0-2.215,0.241-3.199,0.675
	c-1.423-5.649-6.285-9.812-12.065-9.812c-5.782,0-10.643,4.163-12.069,9.812c-0.984-0.435-2.064-0.675-3.199-0.675
	c-4.6,0-8.326,3.95-8.326,8.819c0,4.871,3.726,8.821,8.326,8.821c0.245,0,0.484-0.014,0.722-0.034h29.087
	c0.24,0.021,0.479,0.034,0.723,0.034c4.6,0,8.326-3.95,8.326-8.821C-120.434,16.496-124.16,12.545-128.762,12.545z"/>
<path fill="none" stroke="#000000" stroke-miterlimit="10" d="M1717.079,40.095c-0.811,0-1.582,0.162-2.285,0.455
	c-1.018-3.81-4.49-6.617-8.619-6.617c-4.131,0-7.604,2.808-8.623,6.617c-0.703-0.293-1.475-0.455-2.285-0.455
	c-3.285,0-5.947,2.664-5.947,5.948s2.662,5.948,5.947,5.948c0.176,0,0.346-0.009,0.516-0.022h20.781
	c0.172,0.014,0.342,0.022,0.516,0.022c3.287,0,5.949-2.664,5.949-5.948S1720.366,40.095,1717.079,40.095z"/>
<path fill="#FFFFFF" stroke="#000000" stroke-miterlimit="10" d="M1745.033,38.71c-1.135,0-2.215,0.241-3.199,0.675
	c-1.424-5.648-6.285-9.812-12.066-9.812s-10.643,4.163-12.068,9.812c-0.984-0.434-2.064-0.675-3.199-0.675
	c-4.6,0-8.326,3.95-8.326,8.819c0,4.871,3.727,8.821,8.326,8.821c0.244,0,0.484-0.014,0.723-0.034h29.086
	c0.242,0.021,0.479,0.034,0.725,0.034c4.6,0,8.326-3.95,8.326-8.821C1753.359,42.661,1749.633,38.71,1745.033,38.71z"/>
</svg>
