<?xml version="1.0" encoding="utf-8"?>
<!-- Generator: Adobe Illustrator 15.0.0, SVG Export Plug-In . SVG Version: 6.00 Build 0)  -->
<!DOCTYPE svg PUBLIC "-//W3C//DTD SVG 1.1//EN" "http://www.w3.org/Graphics/SVG/1.1/DTD/svg11.dtd">
<svg version="1.1" id="Layer_1" xmlns="http://www.w3.org/2000/svg" xmlns:xlink="http://www.w3.org/1999/xlink" x="0px" y="0px"
	 width="26px" height="26px" viewBox="0 0 26 26" enable-background="new 0 0 26 26" xml:space="preserve">
<g fill="#40D47E">
	<path d="M20.93,6.31c-0.073-0.358-0.391-0.628-0.771-0.628H6.688c-0.38,0-0.697,0.27-0.77,0.628
		C5.907,6.361,5.901,6.414,5.901,6.468v8.313v5.159c0,0.434,0.353,0.787,0.786,0.787h3.627h6.218h3.627
		c0.434,0,0.786-0.354,0.786-0.787V14.78V6.468C20.945,6.414,20.94,6.361,20.93,6.31z M19.766,14.735v4.811h-4.233h-4.218H7.081
		v-4.811V9.417h12.685V14.735z"/>
	<polygon points="13.394,13.959 9.782,12.021 9.782,13.358 11.958,14.448 9.782,15.539 9.782,16.875 13.394,14.938 	"/>
	<rect x="14.08" y="15.59" width="3.742" height="0.841"/>
</g>
</svg>
