<?xml version="1.0" encoding="utf-8"?>
<!-- Generator: Adobe Illustrator 16.0.0, SVG Export Plug-In . SVG Version: 6.00 Build 0)  -->
<!DOCTYPE svg PUBLIC "-//W3C//DTD SVG 1.1//EN" "http://www.w3.org/Graphics/SVG/1.1/DTD/svg11.dtd">
<svg version="1.1" id="Layer_3" xmlns="http://www.w3.org/2000/svg" xmlns:xlink="http://www.w3.org/1999/xlink" x="0px" y="0px"
	 width="103.434px" height="225px" viewBox="0 0 103.434 225" enable-background="new 0 0 103.434 225" xml:space="preserve">
<g id="Fancy_pants">
	<path id="Hair" stroke="#000000" stroke-miterlimit="10" d="M19.949,57.574c-0.138,0.243-0.858,2.124-1.253,2.989
		c-3.293-3.938,0.676-36.547,12.73-46.699c0,0-4.16,12.019-2.005,20.618c0.566,1.352,4.635-38.5,49.308-31.246
		c0,0-16.04,2.61-15.994,19.028c0,0,12.892-9.769,32.455-3.818c0,0-28.298,4.596-24.859,20.816
		C70.331,39.263,40.627,21.199,19.949,57.574z"/>
	<circle id="Face" fill="#FFFFFF" stroke="#000000" stroke-miterlimit="10" cx="50.912" cy="66.024" r="32.559"/>
	<g id="Eyes">
		<circle id="Right_eye" cx="59.969" cy="51.803" r="3.579"/>
		<circle id="Left_eye" cx="41.854" cy="51.803" r="3.578"/>
	</g>
	<path id="Smile" fill="none" stroke="#000000" stroke-width="0.5" stroke-miterlimit="10" d="M40.35,77.99
		c0,0,3.779,5.255,10.138,6.168"/>
	<g id="Open_mouth_1_" display="none">
		<path display="inline" fill="#FFFFFF" stroke="#000000" stroke-miterlimit="10" d="M67.431,94.091
			c-0.894,0.381-0.794,0.248-1.612-0.187c-5.953-3.151-9.837-8.141-9.964-13.835c-0.22-9.897,10.993-18.175,25.048-18.487
			c1.35-0.03,0.29,0.005,1.594-0.002c1.455-0.009-0.081,1.36,0.975,1.555C83.471,63.134,95.624,82.054,67.431,94.091z"/>
		<path display="inline" fill="#FFFFFF" d="M69.277,95.08c-0.915,0.378-1.853-0.634-2.688-1.063
			c-6.096-3.122-10.013-8.188-10.138-13.836c-0.22-9.817,11.272-18.035,25.667-18.356c1.384-0.031,0.445-0.055,1.774,0.057
			c1.132,0.096,4.547,1.709,4.391,1.253C88.282,63.134,98.163,83.119,69.277,95.08z"/>
	</g>
	<line id="Spine" fill="none" stroke="#000000" stroke-miterlimit="10" x1="50.488" y1="98.584" x2="50.488" y2="168.801"/>
	<g id="Left_hand">
		<line fill="none" stroke="#000000" stroke-miterlimit="10" x1="46.461" y1="105.958" x2="21.057" y2="135.648"/>
		<ellipse transform="matrix(0.8414 -0.5403 0.5403 0.8414 -71.0501 32.4671)" cx="19.798" cy="137.3" rx="2.762" ry="1.281"/>
	</g>
	<g id="Right_hand">
		<line fill="none" stroke="#000000" stroke-miterlimit="10" x1="54.388" y1="105.958" x2="79.793" y2="135.648"/>
		<ellipse transform="matrix(-0.8415 -0.5403 0.5403 -0.8415 75.07 296.6267)" cx="81.051" cy="137.3" rx="2.763" ry="1.281"/>
	</g>
	<polygon id="Left_leg" fill="#E98F24" stroke="#000000" stroke-miterlimit="10" points="59.753,168.801 40.623,168.801 
		29.53,213.426 58.548,213.426 	"/>
	<polyline id="Right_leg" fill="#E98F24" stroke="#000000" stroke-miterlimit="10" points="52.439,213.426 81.457,213.426 
		59.753,168.801 40.623,168.801 	"/>
	<g id="Belt_1_">
		<path fill="none" stroke="#000000" stroke-width="0.5" stroke-miterlimit="10" d="M59.94,169.17
			c1.159,0.19,1.832,0.417,1.832,0.662c0,0.674-5.115,1.225-11.427,1.229c-6.312,0.004-11.429-0.54-11.43-1.214
			c0-0.235,0.619-0.455,1.692-0.643"/>
		<path d="M61.772,169.832c0.82-0.123,1.924,5.666,1.924,5.666c-0.001,0.754-5.87,1.368-13.111,1.373
			c-7.241,0.004-13.112-0.602-13.113-1.354c0,0,0.681-4.194,1.356-5.67C38.829,169.848,48.627,171.817,61.772,169.832z"/>
		<g>
			<ellipse fill="#E3C734" stroke="#000000" stroke-miterlimit="10" cx="51.404" cy="173.854" rx="5.951" ry="3.312"/>
			<path d="M53.128,171.376c0.228,0.173,0.749,0.583,0.755,0.752c0.009,0.215,0.071,0.394-0.224,0.671
				c-0.295,0.277-1.127,0.447-1.244-0.152c-0.114-0.582-0.174-1.335-0.177-1.378c-0.024-0.001-0.048-0.004-0.072-0.005
				c-0.248,0.227-0.494,0.721-0.494,0.721h-0.379c-0.068-0.224-0.358-0.563-0.508-0.728c-0.03,0.003-0.06,0.006-0.09,0.008
				c-0.001,0.017-0.063,0.79-0.178,1.382c-0.116,0.6-0.948,0.43-1.244,0.152s-0.232-0.456-0.224-0.671
				c0.007-0.174,0.56-0.604,0.774-0.767c-2.11,0.338-3.638,1.318-3.638,2.476c0,0.843,0.813,1.59,2.066,2.065
				c-0.292-0.45-0.361-0.91-0.133-1.11c0.273-0.241,0.866-0.013,1.324,0.508c0.05,0.058,0.094,0.115,0.137,0.174
				c-0.015-0.22,0.036-0.401,0.169-0.497c0.303-0.218,0.891,0.083,1.316,0.671c0.143,0.198,0.246,0.403,0.312,0.597
				c0.066-0.193,0.168-0.398,0.312-0.597c0.424-0.588,1.013-0.889,1.316-0.671c0.133,0.096,0.184,0.277,0.169,0.497
				c0.042-0.059,0.087-0.116,0.137-0.174c0.458-0.521,1.051-0.749,1.324-0.508c0.238,0.209,0.156,0.699-0.169,1.167
				c1.342-0.472,2.219-1.245,2.219-2.122C56.687,172.693,55.197,171.726,53.128,171.376z"/>
		</g>
	</g>
	<line id="Leg_crack" fill="#FFFFFF" stroke="#000000" stroke-miterlimit="10" x1="49.384" y1="197.987" x2="54.157" y2="212.854"/>
	<g id="Left_pant_folds">
		<line fill="none" stroke="#000000" stroke-miterlimit="10" x1="34.875" y1="205.421" x2="44.612" y2="205.421"/>
		<line fill="none" stroke="#000000" stroke-miterlimit="10" x1="39.744" y1="201.399" x2="44.612" y2="203.117"/>
	</g>
	
		<line id="Right_pant_folds" fill="none" stroke="#000000" stroke-miterlimit="10" x1="58.539" y1="209.131" x2="68.853" y2="204.114"/>
</g>
<g id="Skateboard">
	<g id="Board">
		<path fill="#5B382A" d="M98.986,208.029c-0.001-0.275-0.191-0.379-0.423-0.23l-0.312,0.198c-0.231,0.148-0.615,0.384-0.852,0.523
			c0,0-8.339,4.906-12.03,4.906c-4.428,0-31.954,0-31.954,0c-0.275,0-0.515,0-0.534,0c0,0,0,0-0.062,0c-1.759,0-28.026,0-32.454,0
			c-3.69,0-12.028-4.905-12.028-4.905c-0.237-0.14-0.621-0.375-0.853-0.523l-0.341-0.217c-0.232-0.148-0.422-0.045-0.423,0.23
			l-0.005,1.292c-0.001,0.275,0.047,0.519,0.107,0.54c0.06,0.022,0.297,0.165,0.527,0.316c0,0,8.434,5.558,13.015,5.558
			c0.454,0,1.504,0,1.504,0c0.275,0,0.5,0.107,0.5,0.238s0.225,0.238,0.5,0.238h0.898c0.275,0,0.65,0.168,0.833,0.373l0.702,0.787
			c0.183,0.205,0.389,0.435,0.458,0.509c0.069,0.074,0.327,0.035,0.573-0.087l1.512-0.753c0.246-0.122,0.65-0.123,0.896-0.002
			l1.671,0.82c0.247,0.121,0.506,0.181,0.576,0.131s0.315-0.213,0.545-0.364l1.737-1.14c0.23-0.151,0.621-0.274,0.868-0.274
			c0.247,0,0.45-0.107,0.45-0.238s0.225-0.238,0.5-0.238h17.232c0.275,0,0.515,0,0.534,0c0,0,0,0,0.062,0c0.996,0,17.64,0,17.64,0
			c0.275,0,0.5,0.107,0.5,0.238s0.225,0.238,0.5,0.238h0.898c0.275,0,0.649,0.168,0.833,0.373l0.702,0.787
			c0.184,0.205,0.389,0.435,0.457,0.509c0.069,0.074,0.326,0.035,0.572-0.087l1.513-0.753c0.246-0.122,0.649-0.123,0.896-0.002
			l1.67,0.82c0.247,0.121,0.507,0.181,0.577,0.131c0.069-0.05,0.315-0.213,0.545-0.364l1.737-1.14
			c0.229-0.151,0.62-0.274,0.868-0.274c0.247,0,0.449-0.107,0.449-0.238s0.225-0.238,0.5-0.238c0,0,1.126,0,1.595,0
			c4.58,0,12.978-5.536,12.978-5.536c0.229-0.151,0.469-0.295,0.531-0.318c0.063-0.022,0.113-0.267,0.112-0.542L98.986,208.029z
			 M31.065,217.23c-0.23,0.151-0.633,0.208-0.896,0.128l-3.583-0.1c-0.265,0.072-0.632-0.037-0.815-0.242l-0.401-0.449
			c-0.183-0.205-0.108-0.373,0.167-0.373h6.608c0.275,0,0.312,0.123,0.082,0.274L31.065,217.23z M79.751,217.23
			c-0.229,0.151-0.633,0.208-0.896,0.128l-3.584-0.1c-0.266,0.072-0.632-0.037-0.815-0.242l-0.399-0.449
			c-0.184-0.205-0.108-0.373,0.167-0.373h6.607c0.275,0,0.312,0.123,0.082,0.274L79.751,217.23z"/>
	</g>
	<path id="wheel_1_" d="M28.48,216.762c-2.211,0-4.009,1.785-4.009,3.981c0,2.195,1.798,3.982,4.009,3.982
		c2.21,0,4.009-1.787,4.009-3.982C32.489,218.547,30.691,216.762,28.48,216.762z M28.48,219.194c0.862,0,1.563,0.695,1.563,1.549
		c0,0.854-0.701,1.55-1.563,1.55c-0.862,0-1.563-0.695-1.563-1.55C26.917,219.89,27.618,219.194,28.48,219.194z M25.044,220.743
		c0-1.783,1.389-3.249,3.15-3.395v1.302c-1.041,0.141-1.849,1.02-1.849,2.093s0.808,1.953,1.849,2.094v1.302
		C26.433,223.993,25.044,222.527,25.044,220.743z M28.767,224.139v-1.302c1.041-0.141,1.849-1.021,1.849-2.094
		s-0.808-1.952-1.849-2.093v-1.302c1.761,0.146,3.15,1.611,3.15,3.395C31.917,222.527,30.528,223.993,28.767,224.139z"/>
	<path id="wheel" d="M76.965,216.762c-2.21,0-4.009,1.785-4.009,3.981c0,2.195,1.799,3.982,4.009,3.982
		c2.211,0,4.01-1.787,4.01-3.982C80.975,218.547,79.176,216.762,76.965,216.762z M76.965,219.194c0.862,0,1.563,0.695,1.563,1.549
		c0,0.854-0.701,1.55-1.563,1.55c-0.861,0-1.562-0.695-1.562-1.55C75.403,219.89,76.104,219.194,76.965,219.194z M73.529,220.743
		c0-1.783,1.389-3.249,3.15-3.395v1.302c-1.041,0.141-1.85,1.02-1.85,2.093s0.809,1.953,1.85,2.094v1.302
		C74.918,223.993,73.529,222.527,73.529,220.743z M77.252,224.139v-1.302c1.041-0.141,1.849-1.021,1.849-2.094
		s-0.808-1.952-1.849-2.093v-1.302c1.761,0.146,3.149,1.611,3.149,3.395C80.401,222.527,79.013,223.993,77.252,224.139z"/>
</g>
</svg>
