<?xml version="1.0" encoding="utf-8"?>
<!-- Generator: Adobe Illustrator 16.0.0, SVG Export Plug-In . SVG Version: 6.00 Build 0)  -->
<!DOCTYPE svg PUBLIC "-//W3C//DTD SVG 1.1//EN" "http://www.w3.org/Graphics/SVG/1.1/DTD/svg11.dtd">
<svg version="1.1" id="Layer_1" xmlns="http://www.w3.org/2000/svg" xmlns:xlink="http://www.w3.org/1999/xlink" x="0px" y="0px"
	 width="50px" height="50px" viewBox="0 0 50 50" enable-background="new 0 0 50 50" xml:space="preserve">
<g fill="#f39c12">
	<path d="M29.62,37.765v1.199h-9.238v-1.199H0c0,1.709,0.994,2.152,2.215,2.152h45.569c1.221,0,2.215-0.443,2.215-2.152H29.62z"/>
	<path d="M42.894,10.083H7.106c-1.671,0-3.031,1.36-3.031,3.031v20.779c0,1.671,1.36,3.032,3.031,3.032h35.787
		c1.671,0,3.031-1.361,3.031-3.032V13.115C45.924,11.443,44.564,10.083,42.894,10.083z M28.698,29.643l-1.345,0.776l-2.848-4.934
		l-1.81,2.375l-1.505-9.669l7.622,6.138l-2.962,0.38L28.698,29.643z"/>
</g>
</svg>
