<?xml version="1.0" encoding="utf-8"?>
<!-- Generator: Adobe Illustrator 16.0.4, SVG Export Plug-In . SVG Version: 6.00 Build 0)  -->
<!DOCTYPE svg PUBLIC "-//W3C//DTD SVG 1.1//EN" "http://www.w3.org/Graphics/SVG/1.1/DTD/svg11.dtd">
<svg version="1.1" id="Layer_1" xmlns="http://www.w3.org/2000/svg" xmlns:xlink="http://www.w3.org/1999/xlink" x="0px" y="0px"
	 width="50px" height="50px" viewBox="0 0 50 50" enable-background="new 0 0 50 50" xml:space="preserve">
<g fill="#f22133">
	<circle cx="20.167" cy="21" r="2.333"/>
	<path d="M30.212,29.404c-3.373-1.092-7.051-1.092-10.424,0c-0.788,0.256-1.221,1.102-0.965,1.89c0.254,0.788,1.1,1.222,1.889,0.965
		c2.775-0.897,5.801-0.897,8.576,0c0.152,0.05,0.31,0.073,0.462,0.073c0.633,0,1.222-0.404,1.427-1.039
		C31.433,30.506,31,29.661,30.212,29.404z"/>
	<path d="M25,9C16.178,9,9,16.178,9,25s7.178,16,16,16c8.821,0,16-7.178,16-16S33.821,9,25,9z M25,38c-7.168,0-13-5.832-13-13
		s5.832-13,13-13s13,5.832,13,13S32.168,38,25,38z"/>
	<circle cx="29.834" cy="21" r="2.333"/>
</g>
</svg>
