<?xml version="1.0" encoding="utf-8"?>
<!-- Generator: Adobe Illustrator 16.0.0, SVG Export Plug-In . SVG Version: 6.00 Build 0)  -->
<!DOCTYPE svg PUBLIC "-//W3C//DTD SVG 1.1//EN" "http://www.w3.org/Graphics/SVG/1.1/DTD/svg11.dtd">
<svg version="1.1" id="Layer_1" xmlns="http://www.w3.org/2000/svg" xmlns:xlink="http://www.w3.org/1999/xlink" x="0px" y="0px"
	 width="281.558px" height="45.545px" viewBox="0 0 281.558 45.545" enable-background="new 0 0 281.558 45.545"
	 xml:space="preserve">
<polygon fill-rule="evenodd" clip-rule="evenodd" fill="#333232" points="0,28.345 1.382,27.592 1.382,28.112 2.196,28.112 
	2.196,28.901 2.711,28.901 2.711,29.438 3.255,29.438 3.255,32.07 3.783,32.07 3.783,33.379 4.312,33.379 4.312,23.918 
	5.656,23.918 5.656,20.764 6.715,20.764 6.715,19.976 11.808,17.61 16.87,19.976 16.87,20.764 17.671,20.764 17.671,23.918 
	18.471,24.171 18.471,30.478 19.271,30.478 20.072,32.843 20.072,27.072 21.401,27.072 21.401,25.226 21.931,25.226 21.931,23.8 
	32.646,23.713 32.646,24.942 33.415,24.942 33.415,27.072 34.231,27.072 34.231,32.339 35.017,32.339 35.017,4.724 42.929,2.69 
	49.176,4.22 49.192,26.03 49.479,26.551 50.505,23.396 51.578,26.551 51.851,25.747 52.107,27.323 52.107,31.267 52.363,31.534 
	52.363,37.053 52.908,37.053 52.908,30.225 53.453,30.225 53.453,14.506 61.989,12.661 67.868,14.239 67.868,24.975 68.925,26.015 
	68.925,27.859 69.469,27.859 69.469,29.185 69.727,29.185 69.727,35.744 70.254,35.744 70.254,33.647 74.274,33.647 74.274,27.592 
	76.133,27.592 76.133,24.706 76.422,24.706 76.422,23.665 76.692,23.665 76.692,22.86 84.942,22.593 84.942,31.66 88.671,31.655 
	88.671,32.719 91.621,31.267 92.406,31.267 92.406,26.804 100.977,26.84 100.96,29.438 101.215,29.438 101.215,30.761 
	102.032,30.761 102.032,31.534 102.561,31.534 102.602,24.151 112.972,24.171 112.972,33.9 114.551,33.882 114.533,26.003 
	118.049,26.015 118.049,28.901 118.578,28.901 118.578,27.592 118.851,27.592 118.851,25.147 119.123,25.147 120.452,21.552 
	120.979,17.847 121.589,21.552 123,25.226 123.384,25.226 123.384,26.551 123.654,26.551 123.654,28.648 123.876,28.648 
	124.16,28.312 124.985,28.312 124.985,27.859 125.258,27.859 125.258,25.747 125.529,25.747 126.426,15.669 127.388,25.541 
	127.933,25.747 127.933,26.551 129.278,26.551 129.278,27.592 132.48,27.592 132.48,28.38 136.999,29.688 136.999,33.111 
	138.345,33.111 138.345,33.935 139.792,33.935 139.792,33.025 142.854,33.025 142.854,26.973 149.707,26.973 149.707,30.457 
	150.004,30.439 150.004,29.299 150.467,29.299 150.622,23.677 153.708,21.095 156.641,23.829 156.641,33.025 160.343,35.126 
	160.343,24.589 162.438,24.589 162.438,4.634 171.899,4.634 171.899,37.918 175.008,37.918 175.008,4.634 183.742,4.634 
	183.742,35.573 184.923,35.573 184.923,29.988 190.141,29.988 190.141,30.211 190.816,30.211 190.842,35.126 193.204,35.126 
	193.204,36.756 195.564,36.756 195.564,37.505 200.057,37.505 200.057,36.287 200.082,36.287 200.073,23.812 205.321,23.812 
	205.301,36.85 208.815,36.856 208.815,29.541 214.238,29.541 214.238,35.224 215.967,35.227 215.967,34.238 216.371,34.24 
	216.371,23.242 218.969,24.121 218.972,23.569 220.168,23.566 220.168,18.327 220.479,18.032 220.479,16.53 221.542,16.474 
	224.142,11.508 224.351,2.229 224.557,11.48 226.963,16.688 228.114,16.688 228.114,18.18 228.404,18.327 228.404,23.549 
	229.317,23.566 229.317,31.396 230.779,31.396 230.779,28.38 235.975,28.38 235.975,38.365 236.951,38.365 236.951,35.301 
	239.765,35.337 239.765,33.249 243.555,33.249 243.555,22.093 244.961,21.164 244.961,17.903 247.094,16.741 247.213,11.556 
	247.442,16.737 249.684,17.812 249.702,21.164 251.109,21.856 251.109,36.287 254.422,36.287 254.422,29.072 256.782,29.072 
	256.782,26.034 258.915,26.034 258.915,19.756 264.11,19.756 264.11,29.765 266.721,29.765 266.721,23.956 272.62,23.956 
	278.52,21.856 278.52,31.619 281.558,34.297 281.558,45.545 0,45.545 0,28.345 "/>
</svg>
